<?xml version="1.0" encoding="UTF-8" standalone="no"?>
<!-- Created with Inkscape (http://www.inkscape.org/) -->

<svg
   xmlns:dc="http://purl.org/dc/elements/1.1/"
   xmlns:cc="http://creativecommons.org/ns#"
   xmlns:rdf="http://www.w3.org/1999/02/22-rdf-syntax-ns#"
   xmlns:svg="http://www.w3.org/2000/svg"
   xmlns="http://www.w3.org/2000/svg"
   xmlns:sodipodi="http://sodipodi.sourceforge.net/DTD/sodipodi-0.dtd"
   xmlns:inkscape="http://www.inkscape.org/namespaces/inkscape"
   id="svg2985"
   height="64"
   viewBox="0 0 240 64"
   width="240"
   version="1.1"
   sodipodi:docname="logo.svg"
   inkscape:version="0.92.4 (5da689c313, 2019-01-14)">
  <defs
     id="defs24" />
  <sodipodi:namedview
     pagecolor="#ffffff"
     bordercolor="#666666"
     borderopacity="1"
     objecttolerance="10"
     gridtolerance="10"
     guidetolerance="10"
     inkscape:pageopacity="0"
     inkscape:pageshadow="2"
     inkscape:window-width="1600"
     inkscape:window-height="834"
     id="namedview22"
     showgrid="false"
     inkscape:zoom="2.7083333"
     inkscape:cx="173.00575"
     inkscape:cy="4.9365446"
     inkscape:window-x="0"
     inkscape:window-y="369"
     inkscape:window-maximized="1"
     inkscape:current-layer="svg2985" />
  <metadata
     id="metadata2990">
    <rdf:RDF>
      <cc:Work
         rdf:about="">
        <dc:format>image/svg+xml</dc:format>
        <dc:type
           rdf:resource="http://purl.org/dc/dcmitype/StillImage" />
        <dc:title></dc:title>
      </cc:Work>
    </rdf:RDF>
  </metadata>
  <path
     style="fill:#ff0000;stroke-width:0.0857325"
     d="m 164.24128,62.297197 c -0.0333,-0.03338 -0.59271,-0.07351 -1.24313,-0.08936 -1.74781,-0.04247 -6.91743,-0.280917 -9.19856,-0.424308 -0.35364,-0.02217 -1.27956,-0.0795 -2.05758,-0.127314 -1.60698,-0.09868 -3.30366,-0.218718 -4.92961,-0.348671 -0.61299,-0.04901 -1.5389,-0.122071 -2.05758,-0.162394 -0.51868,-0.04036 -1.32886,-0.115329 -1.80039,-0.166697 -0.47152,-0.05134 -1.51318,-0.152538 -2.31478,-0.224849 -0.8016,-0.07229 -1.51532,-0.148492 -1.58605,-0.169268 -0.0707,-0.02073 -0.80812,-0.115174 -1.63865,-0.209738 -0.83054,-0.09458 -1.77573,-0.213495 -2.10045,-0.264286 -0.32471,-0.05078 -0.89902,-0.127226 -1.27624,-0.169845 -0.37723,-0.04257 -0.93664,-0.117813 -1.24313,-0.167095 -0.3065,-0.04922 -1.05879,-0.163515 -1.67179,-0.253832 -0.61299,-0.09036 -1.48103,-0.225048 -1.92897,-0.299399 -0.44796,-0.07439 -1.08453,-0.176597 -1.41459,-0.227199 -0.33008,-0.05056 -0.75445,-0.125053 -0.94306,-0.165455 -0.18861,-0.04036 -0.59369,-0.11636 -0.90019,-0.168825 -0.3065,-0.05245 -0.75016,-0.130441 -0.98592,-0.173271 -0.23577,-0.04279 -0.67944,-0.120529 -0.98594,-0.172683 -0.30648,-0.05211 -0.69228,-0.12869 -0.85732,-0.17009 -0.31024,-0.07783 -2.85544,-0.590804 -4.28662,-0.863927 -0.78173,-0.149178 -2.43989,-0.499047 -4.07229,-0.859249 -0.42438,-0.09369 -1.06094,-0.228319 -1.4146,-0.299278 -0.35364,-0.07096 -0.70998,-0.165798 -0.79186,-0.210746 -0.0818,-0.04491 -0.26305,-0.08171 -0.40261,-0.08171 -0.13958,0 -0.76702,-0.134411 -1.39432,-0.298679 -0.62732,-0.164268 -1.23702,-0.321806 -1.35489,-0.35009 -0.11788,-0.02827 -0.2915,-0.08227 -0.38581,-0.119986 -0.0943,-0.03769 -0.73087,-0.20559 -1.41459,-0.373062 -0.68371,-0.167463 -1.70606,-0.426382 -2.2719,-0.575373 -0.56583,-0.148989 -1.39529,-0.358605 -1.84325,-0.465818 -0.44796,-0.107213 -1.20026,-0.293346 -1.67179,-0.41362 -0.47153,-0.120274 -1.43601,-0.359525 -2.143313,-0.531665 -0.707279,-0.172141 -1.575328,-0.386922 -1.928974,-0.477295 -0.353646,-0.09036 -0.951629,-0.227354 -1.32885,-0.304399 -0.37723,-0.07706 -0.840175,-0.174258 -1.028786,-0.216012 -0.18862,-0.0418 -0.516547,-0.110097 -0.728733,-0.151796 -0.212185,-0.04169 -0.945196,-0.198517 -1.628913,-0.348416 -0.683717,-0.149899 -1.455312,-0.307958 -1.714657,-0.351243 -0.259336,-0.04324 -0.645132,-0.117203 -0.857321,-0.164246 -0.212186,-0.04701 -0.655853,-0.125707 -0.985923,-0.17479 -0.33007,-0.04912 -0.677287,-0.103888 -0.771592,-0.121793 -0.324172,-0.06154 -2.315338,-0.39047 -2.872039,-0.474478 -2.121462,-0.320133 -6.603581,-0.741536 -9.259111,-0.870536 -3.346362,-0.16256 -11.697598,-0.03359 -14.145864,0.218507 -0.212188,0.02185 -0.925911,0.08293 -1.586051,0.135742 -1.075235,0.08604 -1.725068,0.160952 -3.77223,0.435017 -0.33007,0.04424 -0.908764,0.119189 -1.285988,0.166664 -0.377223,0.04746 -0.898048,0.124798 -1.157389,0.171818 -0.25934,0.04701 -0.973063,0.164157 -1.586052,0.260284 -1.612032,0.252788 -1.869225,0.297082 -2.914904,0.502052 -2.599886,0.509602 -2.535207,0.502506 -2.737317,0.300397 -0.321057,-0.321052 -0.133628,-0.431947 1.674181,-0.990488 1.502742,-0.464289 3.758579,-1.096981 4.535301,-1.271993 2.242527,-0.505323 3.847901,-0.839336 5.215675,-1.085195 1.457846,-0.262058 1.435823,-0.258909 4.643564,-0.662163 3.719754,-0.467614 3.880037,-0.484988 4.473495,-0.484988 0.304278,0 0.762861,-0.03703 1.019073,-0.08227 0.256213,-0.04523 1.025246,-0.100783 1.708963,-0.123356 0.683717,-0.02262 2.439089,-0.08581 3.900829,-0.140498 3.120102,-0.116748 5.952672,-0.04535 10.202168,0.257301 0.66014,0.04701 1.77895,0.12645 2.486242,0.176542 0.707294,0.05011 1.652495,0.127348 2.100447,0.171696 0.447953,0.04435 1.663212,0.157107 2.700576,0.250606 2.395884,0.215923 2.856032,0.262944 5.058217,0.516919 0.424371,0.04889 1.176669,0.125807 1.671786,0.17081 0.495096,0.04502 1.208827,0.119143 1.58605,0.164767 0.37722,0.04557 0.89803,0.106216 1.15738,0.134599 0.25934,0.02839 0.74159,0.08736 1.07166,0.131095 0.33008,0.04368 1.0245,0.123412 1.54319,0.177141 0.51868,0.05377 1.38672,0.153935 1.92897,0.222675 0.54226,0.06874 1.31386,0.16061 1.71465,0.204172 0.87291,0.0949 1.14699,0.130153 2.68326,0.345467 0.65063,0.09114 1.33761,0.165798 1.52666,0.165798 0.18904,0 0.50546,0.03603 0.70317,0.08016 0.19771,0.04413 0.72597,0.124144 1.17392,0.177917 3.35113,0.402223 4.92782,0.607458 5.29521,0.689281 0.20108,0.04479 0.52901,0.08116 0.72873,0.08082 0.19973,-3.44e-4 0.65249,0.03837 1.00613,0.08604 0.64146,0.08637 2.80899,0.285894 4.75816,0.437934 0.56583,0.04413 1.51102,0.118112 2.10044,0.16439 1.74664,0.137149 3.45162,0.247966 5.22969,0.339901 0.91947,0.04756 2.07687,0.118689 2.57197,0.158126 0.4951,0.03947 1.07381,0.07084 1.28599,0.06974 0.21219,-0.0011 1.33099,0.04523 2.48624,0.102779 5.30548,0.264541 12.61511,0.419507 19.88994,0.421681 5.12995,0.0011 7.12249,-0.03426 12.64554,-0.226989 1.36743,-0.04767 3.37358,-0.108323 4.4581,-0.134721 1.08452,-0.02639 2.10687,-0.06585 2.2719,-0.0877 0.16505,-0.02185 0.91734,-0.06131 1.67179,-0.0877 0.75445,-0.02639 1.56462,-0.06697 1.80039,-0.09025 0.23576,-0.02328 1.1038,-0.08105 1.92897,-0.128379 1.88838,-0.108322 4.80218,-0.336752 6.47282,-0.507395 0.42437,-0.04335 1.17667,-0.117015 1.67177,-0.163715 2.54059,-0.239594 3.76238,-0.372441 4.07229,-0.442768 0.18861,-0.04279 0.5384,-0.07872 0.77728,-0.07993 0.2389,-0.0011 0.64399,-0.03692 0.9002,-0.07961 0.42827,-0.07129 0.81164,-0.116372 3.03782,-0.357518 0.42438,-0.04601 1.21525,-0.142349 1.75752,-0.214172 0.54225,-0.07184 1.22146,-0.152871 1.50935,-0.180101 0.85361,-0.08071 0.80558,-0.339946 0.80448,4.341967 -8.7e-4,2.193907 -0.0251,4.135068 -0.0546,4.313696 -0.0661,0.399705 -0.15487,0.448998 -1.0161,0.564017 -0.37722,0.05033 -1.05237,0.169868 -1.50033,0.265517 -0.44794,0.09568 -1.48959,0.288999 -2.31477,0.429652 -0.82517,0.140663 -1.57749,0.273179 -1.67178,0.294499 -0.0944,0.02129 -0.48011,0.08426 -0.85732,0.139921 -0.37723,0.05566 -1.01379,0.15756 -1.4146,0.226501 -0.73144,0.125795 -1.41305,0.224993 -2.5291,0.368096 -0.53324,0.06841 -1.87681,0.254208 -3.8151,0.527696 -0.83409,0.117691 -1.34681,0.171353 -4.28663,0.448633 -1.34385,0.12675 -2.80988,0.268355 -3.25783,0.314689 -0.44796,0.04634 -1.05279,0.08382 -1.34408,0.08337 -0.2913,-4.33e-4 -0.81212,0.03614 -1.15739,0.08127 -0.34527,0.04513 -1.26433,0.102446 -2.04235,0.127238 -0.77802,0.02483 -1.9547,0.06929 -2.61485,0.09879 -0.66013,0.02949 -1.97183,0.06763 -2.91491,0.08471 -6.25745,0.113488 -7.89436,0.129022 -7.94793,0.07539 z m -21.10851,-14.67833 c -1.3347,-0.01608 -2.09052,-0.05765 -2.16475,-0.119299 -0.15985,-0.13267 -0.17095,-45.4206615 -0.0112,-45.5804551 0.13873,-0.1387432 14.9535,-0.1478248 16.02263,-0.00987 1.76936,0.2283869 3.19631,0.9026675 4.38103,2.0701732 0.60486,0.5960891 0.95394,1.1824946 1.26135,2.118947 0.1771,0.5394519 0.17962,0.6577917 0.17837,8.3989599 -9.9e-4,8.700382 0.0167,8.394089 -0.56503,9.553222 -0.16871,0.336172 -0.46662,0.785309 -0.66204,0.998083 -0.35599,0.387628 -1.20214,1.115589 -1.2967,1.115589 -0.0278,0 -0.20331,0.09655 -0.39025,0.214568 -0.43646,0.275525 -1.31577,0.607419 -2.1858,0.825026 -0.80682,0.201792 -3.50503,0.301686 -5.05823,0.187266 l -0.94305,-0.06947 -0.076,-0.478367 c -0.11134,-0.701044 0.0276,-0.945299 0.61154,-1.074967 0.24717,-0.05489 0.63286,-0.190797 0.85711,-0.302021 0.33148,-0.164423 0.45169,-0.290368 0.64303,-0.673754 0.12942,-0.25934 0.27575,-0.691747 0.32519,-0.960905 0.0599,-0.326064 0.0806,-3.187076 0.0622,-8.57325 -0.0274,-8.0013087 -0.0296,-8.0884249 -0.20899,-8.5294853 -0.46417,-1.1404772 -0.80501,-1.3014105 -2.77863,-1.31197 -0.77404,-0.0041 -1.45527,-0.00576 -1.51384,-0.00377 -0.0845,0.00299 -0.10666,4.3384342 -0.10755,21.0213123 -8.5e-4,15.369209 -0.0268,21.048562 -0.0969,21.133058 -0.099,0.119243 -0.41495,0.121826 -6.28363,0.05133 z m -7.03694,-0.113057 c -0.47153,-0.0367 -1.43602,-0.08892 -2.14332,-0.116117 -1.94423,-0.07484 -2.50589,-0.137902 -2.64224,-0.296837 -0.12131,-0.141441 -0.38007,-1.991742 -0.90653,-6.482667 l -0.14071,-1.200254 -3.35224,-0.02242 -3.35225,-0.02242 -0.0575,0.408215 c -0.0316,0.224517 -0.0922,0.736137 -0.13429,1.13694 -0.0733,0.696101 -0.14479,1.246914 -0.35323,2.722003 -0.0517,0.365434 -0.12644,0.97307 -0.16623,1.350291 -0.11385,1.079252 -0.1815,1.404329 -0.31536,1.515434 -0.0976,0.08105 -0.48042,0.07084 -1.76783,-0.04712 -2.11817,-0.194026 -3.38209,-0.33235 -4.96211,-0.543064 -0.49687,-0.0663 -0.53932,-0.171319 -0.41836,-1.035779 0.0574,-0.410738 0.14031,-0.939687 0.18411,-1.175446 0.0438,-0.235769 0.13827,-0.872331 0.20994,-1.414585 0.13005,-0.98418 0.31386,-2.194727 0.46862,-3.086372 0.0451,-0.259341 0.18279,-1.165962 0.30618,-2.014714 0.12339,-0.848751 0.25711,-1.755373 0.29713,-2.014714 0.04,-0.25934 0.1175,-0.760875 0.17217,-1.114522 0.0546,-0.353647 0.13309,-0.893761 0.17428,-1.200255 0.0971,-0.723006 0.37665,-2.565078 0.68945,-4.543822 0.0484,-0.306494 0.12391,-0.82732 0.16768,-1.15739 0.0438,-0.330069 0.11877,-0.831604 0.16667,-1.114522 0.0989,-0.584387 0.2202,-1.418432 0.34278,-2.357643 0.078,-0.59679 0.12377,-0.893239 0.35157,-2.271911 0.0468,-0.282918 0.1195,-0.765163 0.16165,-1.071656 0.0421,-0.306495 0.11806,-0.80803 0.16866,-1.114523 0.0506,-0.306493 0.13289,-0.846609 0.18286,-1.200255 0.05,-0.353647 0.12555,-0.874471 0.16797,-1.157389 0.0425,-0.282917 0.11951,-0.803742 0.17132,-1.157388 0.19373,-1.322207 0.36349,-2.447308 0.59508,-3.943696 0.0984,-0.636564 0.21345,-1.388866 0.25541,-1.671784 0.042,-0.2829165 0.19294,-1.2666968 0.33551,-2.1861784 0.14257,-0.9194814 0.28492,-1.9032618 0.31633,-2.186179 0.0314,-0.2829171 0.0691,-0.5347745 0.0837,-0.5596819 0.0283,-0.04803 0.17982,-1.123495 0.25944,-1.8408284 0.054,-0.4865141 0.25497,-1.3174227 0.33899,-1.4014761 0.0307,-0.030789 2.26089,-0.055979 4.95582,-0.055979 h 4.8999 l 0.106,0.2211291 c 0.10555,0.2201412 0.30853,1.4903269 0.70455,4.408425 0.0842,0.6199446 0.21459,1.4575525 0.43399,2.7863077 0.0428,0.2593417 0.12134,0.780166 0.17446,1.157389 0.0532,0.377222 0.1546,1.033076 0.22547,1.457451 0.0708,0.424376 0.1615,1.022361 0.2014,1.328854 0.13869,1.06542 0.25363,1.846282 0.34704,2.357644 0.0517,0.282917 0.12683,0.784453 0.167,1.114524 0.0401,0.330069 0.15487,1.120951 0.25487,1.757515 0.19175,1.220506 0.42649,2.788155 0.64185,4.286626 0.0711,0.495104 0.1686,1.160602 0.2165,1.478884 0.0479,0.318283 0.12898,0.858398 0.18016,1.200255 0.0511,0.341859 0.12815,0.795169 0.17107,1.007358 0.0429,0.212187 0.13555,0.829462 0.20583,1.371718 0.0703,0.542259 0.16911,1.217402 0.2196,1.50032 0.0506,0.282918 0.13074,0.784452 0.17833,1.114523 0.19623,1.361421 0.24299,1.680151 0.40875,2.786306 0.0954,0.636563 0.2317,1.562474 0.3029,2.057579 0.0711,0.495107 0.16795,1.112379 0.21501,1.371721 0.047,0.25934 0.20402,1.300991 0.34881,2.314777 0.14479,1.013789 0.28452,1.913119 0.31053,1.998512 0.026,0.08537 0.077,0.432623 0.11325,0.771594 0.0684,0.638768 0.26602,1.969013 0.48005,3.231171 0.26907,1.586914 0.33694,2.376968 0.2166,2.521944 -0.12589,0.151696 -0.96394,0.166298 -2.53504,0.04413 z m -6.76688,-15.29563 c -0.0623,-0.331404 -0.13371,-0.908539 -0.51557,-4.159801 -0.133,-1.132362 -0.23707,-1.881017 -0.39332,-2.829172 -0.0428,-0.259341 -0.0972,-0.703007 -0.12118,-0.985924 -0.0239,-0.282916 -0.0791,-0.784453 -0.1227,-1.114523 -0.0436,-0.33007 -0.16042,-1.27527 -0.25967,-2.100445 -0.0992,-0.825177 -0.22321,-1.770377 -0.27548,-2.100447 -0.0523,-0.330071 -0.10909,-0.754446 -0.12621,-0.943058 -0.0532,-0.583944 -0.20725,-1.777371 -0.29348,-2.27191 -0.0452,-0.259341 -0.12845,-0.962713 -0.18497,-1.563047 -0.0565,-0.600336 -0.12058,-1.073713 -0.14234,-1.05195 -0.0217,0.02177 -0.0725,0.348984 -0.11273,0.727155 -0.11879,1.116213 -0.21655,1.920393 -0.44316,3.645357 -0.11768,0.895905 -0.23775,1.821816 -0.2668,2.057581 -0.0291,0.235764 -0.0883,0.698718 -0.13173,1.028789 -0.0434,0.330071 -0.11955,0.928055 -0.16926,1.328854 -0.0497,0.400799 -0.12928,0.998784 -0.17681,1.328854 -0.0475,0.33007 -0.14322,1.101663 -0.21259,1.71465 -0.14227,1.257047 -0.27719,2.327476 -0.38903,3.086369 -0.0417,0.282918 -0.11816,0.900193 -0.16991,1.371721 -0.0518,0.471528 -0.12907,1.088803 -0.17177,1.37172 -0.0427,0.282917 -0.10101,0.794096 -0.12961,1.135955 l -0.052,0.621561 h 2.45811 2.45811 z m 36.80815,15.09922 -0.20636,-0.10289 -0.0219,-22.587977 c -0.0206,-21.1607817 -0.0127,-22.5947533 0.12354,-22.6951481 0.11413,-0.084052 1.99963,-0.1071692 8.74222,-0.1071692 8.5303,0 8.59744,0.00133 8.68918,0.1727501 0.10998,0.2056125 0.0825,5.0883478 -0.0292,5.1999471 -0.0393,0.039226 -1.98758,0.080092 -4.3295,0.090812 -2.34192,0.01075 -4.3159,0.020364 -4.38662,0.021431 -0.11342,0.00168 -0.12613,0.8340124 -0.10766,7.0534351 0.0116,3.878326 0.0211,7.215465 0.0214,7.415866 l 8.5e-4,0.364362 h 1.82611 c 1.30598,0 1.8554,0.02931 1.92898,0.102879 0.0752,0.07521 0.10289,0.761638 0.10289,2.552898 0,2.078704 -0.0202,2.478897 -0.13346,2.640561 -0.1307,0.186589 -0.1707,0.190541 -1.92948,0.190541 h -1.796 l 0.0219,7.1648 0.0219,7.164794 4.30116,-0.0089 4.30115,-0.0089 0.13551,0.193461 c 0.11423,0.163082 0.13549,0.511388 0.13549,2.218665 0,1.891092 -0.0111,2.035126 -0.16527,2.174803 -0.13685,0.123833 -0.4356,0.163004 -1.73609,0.227609 -0.86395,0.04291 -2.36169,0.117935 -3.32832,0.166708 -3.66403,0.184836 -8.40029,0.387665 -10.72455,0.459277 -0.87188,0.02684 -1.31365,0.0078 -1.45745,-0.0643 z m 21.33393,-0.999048 c -0.14225,-0.08836 -0.15004,-1.238453 -0.15004,-22.197431 0,-20.4643797 0.0111,-22.1129567 0.14191,-22.2218909 0.11574,-0.095971 0.87032,-0.1176631 4.09372,-0.1176631 2.17352,0 4.05332,0.028516 4.17735,0.063363 0.13022,0.036588 0.24748,0.1452836 0.27747,0.2571981 0.0287,0.1066147 0.0525,9.1143439 0.0532,20.0171849 l 9.9e-4,19.823347 4.32526,0.02372 c 3.40955,0.01873 4.34884,0.04734 4.43665,0.135175 0.14937,0.149445 0.15987,2.78928 0.0117,2.93746 -0.10644,0.106438 -0.13825,0.110097 -2.17221,0.253277 -2.06745,0.145498 -2.17795,0.15511 -2.31478,0.201278 -0.0707,0.02384 -0.51439,0.06508 -0.98592,0.09158 -0.96916,0.05444 -2.82483,0.181509 -4.41522,0.302249 -2.94814,0.223807 -3.57214,0.268511 -4.80103,0.343925 -0.73086,0.04491 -1.5989,0.103777 -1.92897,0.130985 -0.37035,0.03049 -0.65759,0.01374 -0.75016,-0.04379 z M 111.8764,45.456381 c -0.21219,-0.03748 -0.7716,-0.113977 -1.24312,-0.169989 -0.47153,-0.05599 -1.41674,-0.174058 -2.10045,-0.262324 -0.68372,-0.08825 -1.62892,-0.205113 -2.10045,-0.259674 -0.47153,-0.05455 -1.04758,-0.15317 -1.28012,-0.219149 -0.23253,-0.06597 -0.53344,-0.119965 -0.66868,-0.119965 -0.30085,0 -0.71263,-0.202995 -0.78282,-0.385912 -0.0345,-0.08981 0.10477,-0.294233 0.41628,-0.610718 0.28315,-0.287702 0.5026,-0.599763 0.55537,-0.789732 0.0502,-0.180788 0.0875,-1.409042 0.0877,-2.894199 4.3e-4,-2.390348 0.012,-2.590556 0.15726,-2.722006 0.14126,-0.127839 0.56037,-0.141887 4.23326,-0.141887 3.37549,0 4.09349,0.02049 4.17538,0.119164 0.0721,0.08695 0.0924,1.112488 0.0748,3.793659 l -0.024,3.674505 -0.25718,0.514393 c -0.23712,0.474245 -0.28063,0.515467 -0.55727,0.528195 -0.16503,0.0078 -0.47367,-0.01686 -0.68585,-0.05432 z m -64.312014,-0.32195 c -0.07768,-0.01785 -0.163957,-0.117204 -0.191728,-0.220781 -0.02777,-0.103554 -0.05102,-8.608303 -0.05167,-18.899419 l -0.0012,-18.7111163 h -3.161605 c -2.834733,0 -3.173772,-0.014643 -3.279269,-0.1416066 -0.09204,-0.1107614 -0.123487,-0.6632205 -0.144396,-2.5360704 -0.02313,-2.0713561 -0.0084,-2.4224486 0.109143,-2.6018354 L 40.979534,1.8162335 H 51.637968 62.2964 l 0.162346,0.1793891 c 0.152296,0.168284 0.161205,0.3310767 0.143946,2.6299283 -0.01206,1.6064344 -0.05009,2.4822562 -0.110384,2.5426187 -0.06066,0.060716 -1.17828,0.1066816 -3.281329,0.1349451 l -3.189343,0.042862 -0.02164,17.6720003 c -0.01805,14.738566 -0.04092,17.687996 -0.137734,17.768355 -0.109653,0.09103 -0.291622,0.137094 -1.42668,0.361389 -0.997189,0.197053 -1.201775,0.247467 -2.700574,0.665577 -1.344899,0.37518 -3.453537,1.071469 -3.8851,1.282892 -0.07938,0.03892 -0.207883,0.0561 -0.285561,0.03825 z m 51.709337,-1.568322 c -0.165036,-0.03847 -0.647287,-0.114475 -1.071658,-0.168991 -0.424382,-0.05455 -0.93334,-0.134843 -1.131051,-0.178482 -0.19771,-0.04368 -0.510233,-0.07938 -0.694506,-0.07938 -0.184273,0 -0.446889,-0.03737 -0.583597,-0.08305 -0.136698,-0.04568 -1.020141,-0.161917 -1.963203,-0.25831 -2.008941,-0.205358 -2.56086,-0.304754 -2.71354,-0.488725 -0.09114,-0.109763 -0.1147,-3.522296 -0.127118,-18.40634 -0.0102,-12.165757 0.01409,-18.4291151 0.07253,-18.7430731 0.296684,-1.5936764 1.677614,-3.019825 3.582581,-3.6999019 l 0.557256,-0.1989437 6.730013,-0.025833 c 7.57505,-0.029081 7.40195,-0.040967 8.74471,0.6006592 0.56002,0.2675958 0.86952,0.4892471 1.33686,0.9573607 0.72133,0.72254 0.99135,1.1301041 1.22967,1.8561088 0.16713,0.5090555 0.17692,0.7339975 0.17692,4.0654639 0,2.6285971 -0.0262,3.5527891 -0.10289,3.6294721 -0.0772,0.07718 -1.13672,0.102878 -4.24076,0.102878 -4.00323,0 -4.14074,-0.0054 -4.22661,-0.165829 -0.0555,-0.103788 -0.0894,-1.154254 -0.0906,-2.8077385 -0.002,-2.9617068 -0.0211,-3.071985 -0.62062,-3.5983487 -0.61942,-0.5438594 -1.92168,-0.7977291 -2.79996,-0.5458419 -0.59807,0.1715261 -1.21246,0.6224035 -1.429853,1.049333 l -0.205947,0.40438 V 24.640891 c 0,17.694119 9.88e-4,17.860848 0.171467,18.177832 0.215833,0.402699 0.217583,0.632759 0.0059,0.746181 -0.184777,0.0989 -0.186022,0.0989 -0.605756,0.0011 z M 84.699196,41.933671 c -0.589411,-0.03614 -1.785379,-0.107102 -2.657707,-0.157882 -0.872328,-0.05078 -2.241906,-0.140863 -3.043504,-0.200269 -1.791351,-0.132747 -11.225392,-0.131627 -12.859877,0.0011 -0.936107,0.07628 -1.145402,0.07096 -1.30742,-0.03281 L 64.637789,41.420211 V 21.784297 c 0,-13.3719196 0.02832,-19.6893063 0.08876,-19.8022319 0.08587,-0.1604587 0.222613,-0.1657861 4.222326,-0.1645167 2.454943,7.806e-4 4.1858,0.034326 4.262176,0.0826 0.113453,0.071712 0.133646,2.2852044 0.171465,18.7955386 l 0.04286,18.714252 0.193982,0.271954 c 0.296172,0.415214 0.807648,0.570446 1.89188,0.574172 1.104539,0.0034 1.692364,-0.179159 1.9007,-0.591565 0.112737,-0.223165 0.133886,-2.555445 0.171465,-18.909648 0.03594,-15.6393199 0.06188,-18.6780085 0.160526,-18.7968547 0.10647,-0.1282714 0.510723,-0.1417624 4.248046,-0.1417624 3.098209,0 4.156093,0.025711 4.233262,0.1028783 0.07943,0.079429 0.102878,4.6433629 0.102878,20.0206598 v 19.917784 l -0.219912,0.0836 c -0.120953,0.04601 -0.246335,0.07783 -0.278632,0.07084 -0.0323,-0.0066 -0.540963,-0.04224 -1.130374,-0.07838 z"
     id="path279"
     inkscape:connector-curvature="0" />
</svg>
